<svg width="18" height="14" viewBox="0 0 18 14" fill="none" xmlns="http://www.w3.org/2000/svg">
<path d="M18 3.09375V11.3756C18 12.0452 17.7369 12.6895 17.2644 13.1766C16.792 13.6638 16.1459 13.957 15.4584 13.9963L15.3 14.0006H2.7C2.01131 14.0007 1.34864 13.7448 0.847565 13.2855C0.346494 12.8262 0.0449032 12.198 0.0045001 11.5296L0 11.3756V3.09375L8.5005 8.60363L8.6049 8.66138C8.72793 8.71982 8.86306 8.7502 9 8.7502C9.13694 8.7502 9.27207 8.71982 9.3951 8.66138L9.4995 8.60363L18 3.09375Z" fill="black" fill-opacity="0.7"/>
<path d="M15.3001 0C16.2721 0 17.1244 0.49875 17.5996 1.24863L9.00013 6.82237L0.400635 1.24863C0.626348 0.892345 0.936396 0.593688 1.30493 0.377553C1.67346 0.161419 2.0898 0.0340701 2.51923 0.00612497L2.70013 0H15.3001Z" fill="black" fill-opacity="0.7"/>
</svg>
