<svg width="27" height="27" viewBox="0 0 27 27" fill="none" xmlns="http://www.w3.org/2000/svg">
<path d="M17.8847 16.5217C17.6891 16.4672 16.4523 15.9918 17.2251 13.9885H17.214C19.2286 12.2192 20.7681 9.37219 20.7681 6.56924C20.7681 2.25936 17.4072 0 13.5012 0C9.59275 0 6.25037 2.25831 6.25037 6.56924C6.25037 9.38373 7.78127 12.2423 9.80811 14.0074C10.5982 15.7746 9.18542 16.4304 8.89006 16.5228C4.79945 17.7842 0 20.0834 0 22.3533V23.2043C0 26.2969 7.03181 27 13.5394 27C20.0568 27 27 26.2969 27 23.2043V22.3533C27 20.0152 22.1772 17.7338 17.8847 16.5217Z" fill="white"/>
</svg>
